<svg width="100" height="21" viewBox="0 0 194 40" fill="none" xmlns="http://www.w3.org/2000/svg">
<path d="M13.1969 0.163932C13.092 0.0589689 12.9496 1.30553e-06 12.8012 1.31202e-06L0.559694 1.84711e-06C0.405132 1.85386e-06 0.265204 0.0626534 0.163918 0.163946L21.6881 21.912L43.2124 0.163946C43.2311 0.182659 43.2485 0.202685 43.2644 0.223884C43.1623 0.0879367 42.9997 0 42.8166 0L30.5751 5.35092e-07C30.4267 5.41581e-07 30.2843 0.0589681 30.1794 0.163931L22.0839 8.25937C21.8653 8.47794 21.511 8.47794 21.2924 8.25937L13.1969 0.163932Z" fill="#FF4D56"/>
<path d="M43.2129 0.16394C43.3142 0.265221 43.3769 0.405145 43.3769 0.559716V36.2848C43.3769 37.907 42.0617 39.2222 40.4394 39.2222V39.2222C39.6604 39.2222 38.9132 38.9127 38.3624 38.3618L22.0833 22.0827C21.9742 21.9742 21.8315 21.92 21.6887 21.92V21.9121L43.2129 0.16394Z" fill="url(#paint0_linear_2351_37885)"/>
<path d="M4.78977 38.5856C4.38278 38.9926 3.8308 39.2212 3.25524 39.2212V39.2212C1.45742 39.2212 0 37.7638 0 35.966V0.55874C0 0.404168 0.0626376 0.264244 0.163918 0.162964L21.6881 21.9111V21.919C21.5449 21.919 21.4016 21.9737 21.2924 22.083L4.78977 38.5856Z" fill="url(#paint1_linear_2351_37885)"/>
<path d="M62.584 34.288H69.3301V17.6736C69.3301 13.1576 71.8947 10.37 75.6302 10.37C79.3656 10.37 81.5957 12.9346 81.5957 17.5064V34.288H88.3418V17.6736C88.3418 12.9346 90.9622 10.37 94.6419 10.37C98.4331 10.37 100.607 12.8789 100.607 17.5621V34.288H107.354V15.4993C107.354 8.30714 103.451 4.23718 97.0393 4.23718C92.579 4.23718 89.4569 6.30004 87.1153 9.4222C85.5542 6.30004 82.5435 4.23718 78.3063 4.23718C73.7903 4.23718 71.2257 6.69031 69.3301 9.3107V4.85047H62.584V34.288Z" fill="#2C3D73"/>
<path d="M127.324 34.957C136.412 34.957 143.102 27.9879 143.102 19.625V19.5135C143.102 11.0948 136.467 4.23718 127.435 4.23718C118.404 4.23718 111.713 11.2063 111.713 19.625V19.7365C111.713 28.0994 118.348 34.957 127.324 34.957ZM127.435 29.0472C122.195 29.0472 118.459 24.7542 118.459 19.625V19.5135C118.459 14.3842 121.916 10.147 127.324 10.147C132.62 10.147 136.356 14.44 136.356 19.625V19.7365C136.356 24.81 132.899 29.0472 127.435 29.0472Z" fill="#2C3D73"/>
<path d="M147.742 34.288H154.488V23.0817C154.488 15.2763 158.614 11.4293 164.524 11.4293H164.914V4.29294C159.729 4.06992 156.328 7.08058 154.488 11.4851V4.85047H147.742V34.288Z" fill="#2C3D73"/>
<path d="M177.832 34.9013C182.348 34.9013 185.414 33.0057 187.421 30.6083V34.288H194V16.8373C194 12.9904 192.996 9.86823 190.822 7.74962C188.759 5.63101 185.47 4.4602 181.065 4.4602C176.382 4.4602 173.204 5.408 169.971 6.85757L171.755 12.1541C174.431 11.039 176.884 10.3142 180.173 10.3142C184.912 10.3142 187.477 12.5444 187.477 16.7258V17.4506C185.191 16.7258 182.849 16.2241 179.56 16.2241C172.368 16.2241 167.406 19.3462 167.406 25.702V25.8135C167.406 31.7234 172.312 34.9013 177.832 34.9013ZM179.727 29.995C176.494 29.995 173.985 28.3782 173.985 25.5348V25.4233C173.985 22.3569 176.549 20.517 180.898 20.517C183.574 20.517 185.86 21.0188 187.588 21.6878V23.6949C187.588 27.4304 184.188 29.995 179.727 29.995Z" fill="#2C3D73"/>
<defs>
<linearGradient id="paint0_linear_2351_37885" x1="43.3769" y1="13.3345" x2="43.3769" y2="42.5859" gradientUnits="userSpaceOnUse">
<stop stop-color="#FF787F"/>
<stop offset="1" stop-color="#FF4D56"/>
</linearGradient>
<linearGradient id="paint1_linear_2351_37885" x1="0" y1="14.8574" x2="1.52223e-07" y2="42.5849" gradientUnits="userSpaceOnUse">
<stop stop-color="#D03B44"/>
<stop offset="1" stop-color="#FF4D56"/>
</linearGradient>
</defs>
</svg>
