<svg width="93" height="48" viewBox="0 0 93 48" fill="none" xmlns="http://www.w3.org/2000/svg">
<g id="TOQ Logo2" clip-path="url(#clip0_39_472)">
<g id="Vector">
<path d="M63.0526 3.58404C64.5508 2.14386 66.0896 0.745203 67.6073 -0.675049C69.3815 1.2535 71.1655 3.17043 72.9445 5.094C73.1182 5.32323 73.4574 5.48934 73.4445 5.81824C73.5029 7.29331 73.5581 8.76838 73.61 10.2434C71.3473 10.9245 69.2549 12.1604 67.5262 13.8015C67.4694 11.9228 67.3801 10.0458 67.3168 8.16705C65.8851 6.6488 64.4907 5.09732 63.0526 3.58404Z" fill="#167AD8"/>
<path d="M15.3914 8.57735C16.677 7.29829 17.9756 6.03252 19.2385 4.72855C20.5241 6.01591 21.7886 7.32487 23.0823 8.60559C21.808 9.89461 20.4965 11.1421 19.2433 12.4511C17.9496 11.1703 16.6559 9.88963 15.3914 8.57735Z" fill="#167AD8"/>
<path d="M10.7263 13.2717C11.9908 11.9627 13.3121 10.7135 14.5831 9.40957C15.8394 10.7185 17.1413 11.981 18.4269 13.2584C17.1526 14.5574 15.8378 15.8165 14.5814 17.1337C13.3202 15.8215 11.9973 14.574 10.7263 13.2717Z" fill="#167AD8"/>
<path d="M27.8529 9.89959C31.0052 9.41953 34.302 9.9893 37.1134 11.5325C40.4134 13.3298 43.0285 16.4577 44.1436 20.1204C45.2149 23.5191 44.9991 27.3263 43.5333 30.5688C42.2412 33.514 39.946 35.9641 37.1816 37.5056C34.0861 39.2232 30.39 39.7564 26.9455 39.0089C23.7965 38.3461 20.8812 36.587 18.784 34.092C16.7095 31.6469 15.4531 28.4825 15.3135 25.245C15.1317 21.7417 16.2631 18.1952 18.3993 15.456C20.7026 12.456 24.1666 10.4378 27.8529 9.89959ZM28.8334 16.0557C26.4359 16.3879 24.1942 17.8131 22.8745 19.8945C21.6619 21.7383 21.2448 24.0888 21.6847 26.2599C22.1798 28.7615 23.8549 30.9808 26.0852 32.1186C27.9276 33.117 30.1352 33.3578 32.1545 32.8462C34.2436 32.3313 36.107 30.9608 37.2757 29.122C38.4542 27.2914 38.8746 24.9725 38.4299 22.8297C37.9689 20.4975 36.4901 18.4078 34.487 17.2068C32.8054 16.1736 30.7731 15.7683 28.8334 16.0557Z" fill="#167AD8"/>
<path d="M50.807 9.95939C54.2011 9.35641 57.7998 9.97102 60.7914 11.7318C63.6028 13.3647 65.8786 15.9676 67.0911 19.0407C68.3345 22.1287 68.479 25.6586 67.5083 28.8446C66.5539 32.004 64.5248 34.8096 61.8481 36.6618C59.3045 38.4657 56.1912 39.4126 53.0973 39.3312C48.8867 39.2963 44.7507 37.2864 42.0302 34.0023C43.6615 31.8828 44.7718 29.328 45.0981 26.6436C45.6743 29.0024 47.3251 31.0256 49.4223 32.1369C51.4368 33.195 53.8619 33.401 56.0175 32.6917C57.8193 32.107 59.436 30.9044 60.4895 29.2931C61.8059 27.3629 62.2458 24.8446 61.6988 22.5623C61.1323 20.0722 59.3776 17.9194 57.1262 16.8331C55.1361 15.8464 52.7727 15.7002 50.6739 16.4062C47.9192 17.2982 45.7003 19.7317 45.0542 22.6171C44.7215 19.9261 43.5674 17.3646 41.8792 15.2833C44.0884 12.471 47.3398 10.569 50.807 9.95939Z" fill="#167AD8"/>
<path d="M74.1928 10.2966C77.2103 9.43947 80.4925 9.56073 83.4305 10.677C86.2111 11.7301 88.6898 13.6338 90.3877 16.1288C92.1749 18.7068 93.1098 21.8928 92.9897 25.0539C92.8956 28.0024 91.8957 30.9127 90.1572 33.2665C88.1444 36.0571 85.1447 38.0604 81.8592 38.891C78.9878 39.6119 75.9053 39.4674 73.1263 38.4226C70.3035 37.391 67.7989 35.4492 66.0896 32.9259C67.6593 30.5206 68.5374 27.6386 68.5163 24.7416C68.5456 21.755 67.6219 18.7782 65.9533 16.3314C67.8914 13.4095 70.8684 11.2385 74.1928 10.2966ZM77.0367 16.0474C74.6002 16.3929 72.3163 17.8447 71.0031 19.9825C69.5812 22.2001 69.2971 25.1254 70.2548 27.5904C71.0518 29.6934 72.6978 31.4442 74.7187 32.3462C76.7493 33.2814 79.1404 33.3528 81.2294 32.5655C84.4061 31.4343 86.7565 28.1868 86.7776 24.73C86.8766 21.9111 85.445 19.1254 83.1773 17.544C81.4145 16.2733 79.1696 15.7484 77.0367 16.0474Z" fill="#167AD8"/>
<path d="M4.45088 26.9409C4.58561 26.8612 4.78527 26.5871 4.91188 26.8396C6.77372 28.9758 8.74756 31.0273 10.9698 32.7748C11.1418 32.8877 11.2976 33.0854 11.5249 33.0572C13.5393 33.0638 15.5554 33.0572 17.5698 33.0605C19.6719 36.2017 22.9621 38.4475 26.5819 39.2996C20.7448 39.273 14.9077 39.298 9.07058 39.2863C8.63069 38.7149 8.06581 38.2714 7.55612 37.7714C5.03525 35.4193 2.51925 33.0621 0 30.71C1.48363 29.4542 2.97213 28.2017 4.45088 26.9409Z" fill="#167AD8"/>
<path d="M65.8169 33.3396C66.0604 33.4625 66.1951 33.715 66.3591 33.9259C67.0067 34.8213 67.7956 35.5953 68.5991 36.3445C68.5407 38.1834 68.4514 40.0222 68.3962 41.8611C68.3784 42.0521 68.4011 42.2614 68.3118 42.4391C66.4045 44.5238 64.4518 46.567 62.5705 48.6749C61.0057 47.2995 59.5253 45.8278 57.9686 44.4424C59.3208 43.0189 60.6275 41.5521 61.9829 40.1335C62.0949 39.9907 62.2767 39.8644 62.2572 39.6601C62.2929 38.7714 62.3205 37.8844 62.3578 36.9973C63.6872 35.9724 64.9079 34.7748 65.8169 33.3396Z" fill="#167AD8"/>
</g>
</g>
<defs>
<clipPath id="clip0_39_472">
<rect width="93" height="47" fill="white" transform="translate(0 0.5)"/>
</clipPath>
</defs>
</svg>
	